<svg xmlns="http://www.w3.org/2000/svg" xmlns:svg="http://www.w3.org/2000/svg" id="svg8" width="636.355" height="431.436" version="1.1" viewBox="0 0 168.369 114.151"><defs id="defs2"><marker id="marker5766" orient="auto" overflow="visible" refX="0" refY="0"><path id="path5764" fill="#000" fill-opacity="1" fill-rule="evenodd" stroke="#000" stroke-linejoin="round" stroke-opacity="1" stroke-width=".625" d="M 8.7185878,4.0337352 -2.2072895,0.01601326 8.7185884,-4.0017078 c -1.7454984,2.3720609 -1.7354408,5.6174519 -6e-7,8.035443 z" transform="matrix(1.1,0,0,1.1,1.1,0)"/></marker><marker id="marker5510" orient="auto" overflow="visible" refX="0" refY="0"><path id="path5508" fill="#000" fill-opacity="1" fill-rule="evenodd" stroke="#000" stroke-linejoin="round" stroke-opacity="1" stroke-width=".625" d="M 8.7185878,4.0337352 -2.2072895,0.01601326 8.7185884,-4.0017078 c -1.7454984,2.3720609 -1.7354408,5.6174519 -6e-7,8.035443 z" transform="matrix(-1.1,0,0,-1.1,-1.1,0)"/></marker><marker id="marker5311" orient="auto" overflow="visible" refX="0" refY="0"><path id="path5309" fill="#000" fill-opacity="1" fill-rule="evenodd" stroke="#000" stroke-linejoin="round" stroke-opacity="1" stroke-width=".625" d="M 8.7185878,4.0337352 -2.2072895,0.01601326 8.7185884,-4.0017078 c -1.7454984,2.3720609 -1.7354408,5.6174519 -6e-7,8.035443 z" transform="matrix(1.1,0,0,1.1,1.1,0)"/></marker><marker id="Arrow2Lstart" orient="auto" overflow="visible" refX="0" refY="0"><path id="path4546" fill="#000" fill-opacity="1" fill-rule="evenodd" stroke="#000" stroke-linejoin="round" stroke-opacity="1" stroke-width=".625" d="M 8.7185878,4.0337352 -2.2072895,0.01601326 8.7185884,-4.0017078 c -1.7454984,2.3720609 -1.7354408,5.6174519 -6e-7,8.035443 z" transform="matrix(1.1,0,0,1.1,1.1,0)"/></marker><marker id="Arrow2Lend" orient="auto" overflow="visible" refX="0" refY="0"><path id="path4549" fill="#000" fill-opacity="1" fill-rule="evenodd" stroke="#000" stroke-linejoin="round" stroke-opacity="1" stroke-width=".625" d="M 8.7185878,4.0337352 -2.2072895,0.01601326 8.7185884,-4.0017078 c -1.7454984,2.3720609 -1.7354408,5.6174519 -6e-7,8.035443 z" transform="matrix(-1.1,0,0,-1.1,-1.1,0)"/></marker><marker id="Arrow2Lend-5" orient="auto" overflow="visible" refX="0" refY="0"><path id="path4549-1" fill="#000" fill-opacity="1" fill-rule="evenodd" stroke="#000" stroke-linejoin="round" stroke-opacity="1" stroke-width=".625" d="M 8.7185878,4.0337352 -2.2072895,0.01601326 8.7185884,-4.0017078 c -1.7454984,2.3720609 -1.7354408,5.6174519 -6e-7,8.035443 z" transform="matrix(-1.1,0,0,-1.1,-1.1,0)"/></marker><marker id="Arrow2Lend-2" orient="auto" overflow="visible" refX="0" refY="0"><path id="path4549-5" fill="#000" fill-opacity="1" fill-rule="evenodd" stroke="#000" stroke-linejoin="round" stroke-opacity="1" stroke-width=".625" d="M 8.7185878,4.0337352 -2.2072895,0.01601326 8.7185884,-4.0017078 c -1.7454984,2.3720609 -1.7354408,5.6174519 -6e-7,8.035443 z" transform="matrix(-1.1,0,0,-1.1,-1.1,0)"/></marker></defs><metadata id="metadata5"/><g id="layer1" transform="translate(-24.380736,-32.197678)"><rect id="rect4485" width="28.865" height="26.192" x="33.312" y="49.881" fill="#000" fill-opacity="0" stroke="#000" stroke-dasharray="none" stroke-dashoffset="0" stroke-miterlimit="4" stroke-opacity="1" stroke-width=".5" rx="1.89" ry="1.89"/><text id="text4489" x="36.97" y="66.457" fill="#000" fill-opacity="1" stroke="none" stroke-width=".265" font-family="sans-serif" font-size="10.583" font-style="normal" font-weight="normal" letter-spacing="0" word-spacing="0" xml:space="preserve" style="line-height:6.61458302px"><tspan id="tspan4487" x="36.97" y="66.457" stroke-width=".265">CPU</tspan></text><rect id="rect4485-5" width="62.194" height="26.041" x="130.19" y="50.012" fill="#000" fill-opacity="0" stroke="#000" stroke-dasharray="none" stroke-dashoffset="0" stroke-miterlimit="4" stroke-opacity="1" stroke-width=".732" rx="4.072" ry="1.879"/><text id="text4489-4" x="139.397" y="65.79" fill="#000" fill-opacity="1" stroke="none" stroke-width=".265" font-family="sans-serif" font-size="10.583" font-style="normal" font-weight="normal" letter-spacing="0" word-spacing="0" xml:space="preserve" style="line-height:6.61458349px"><tspan id="tspan4487-5" x="139.397" y="65.79" stroke-width=".265">Memory</tspan></text><path id="path4526" fill="none" stroke="#000" stroke-dasharray="none" stroke-linecap="butt" stroke-linejoin="miter" stroke-miterlimit="4" stroke-opacity="1" stroke-width=".265" marker-end="url(#Arrow2Lend)" marker-start="url(#marker5311)" d="m 62.177083,52.260417 h 67.468747 v 0"/><path id="path4526-3" fill="none" stroke="#000" stroke-dasharray="none" stroke-linecap="butt" stroke-linejoin="miter" stroke-miterlimit="4" stroke-opacity="1" stroke-width=".265" marker-end="url(#Arrow2Lend-5)" d="m 62.17709,61.520833 h 67.46874 v 0"/><path id="path4526-8" fill="none" stroke="#000" stroke-dasharray="none" stroke-linecap="butt" stroke-linejoin="miter" stroke-miterlimit="4" stroke-opacity="1" stroke-width=".265" marker-end="url(#Arrow2Lend-2)" marker-start="url(#Arrow2Lstart)" d="m 62.17709,70.78125 h 67.46874 v 0"/><text id="text4489-9" x="87.062" y="50.788" fill="#000" fill-opacity="1" stroke="none" stroke-width=".136" font-family="sans-serif" font-size="5.459" font-style="normal" font-weight="normal" letter-spacing="0" word-spacing="0" xml:space="preserve" style="line-height:3.41218019px"><tspan id="tspan4487-8" x="87.062" y="50.788" stroke-width=".136">Control</tspan></text><text id="text4489-9-6" x="86.072" y="59.835" fill="#000" fill-opacity="1" stroke="none" stroke-width=".136" font-family="sans-serif" font-size="5.459" font-style="normal" font-weight="normal" letter-spacing="0" word-spacing="0" xml:space="preserve" style="line-height:3.41218019px"><tspan id="tspan4487-8-0" x="86.072" y="59.835" stroke-width=".136">Address</tspan></text><text id="text4489-9-6-1" x="90.296" y="69.27" fill="#000" fill-opacity="1" stroke="none" stroke-width=".136" font-family="sans-serif" font-size="5.459" font-style="normal" font-weight="normal" letter-spacing="0" word-spacing="0" xml:space="preserve" style="line-height:3.41218019px"><tspan id="tspan4487-8-0-2" x="90.296" y="69.27" stroke-width=".136">Data</tspan></text><rect id="rect5463" width="50.271" height="41.01" x="71.438" y="39.031" fill="#000" fill-opacity="0" stroke="#000" stroke-dasharray="1.59 1.59" stroke-dashoffset="0" stroke-linejoin="miter" stroke-miterlimit="1" stroke-opacity="1" stroke-width=".265" rx="1.89" ry="1.89"/><text id="text4489-9-4" x="89.279" y="36.25" fill="#000" fill-opacity="1" stroke="none" stroke-width=".136" font-family="sans-serif" font-size="5.459" font-style="normal" font-weight="normal" letter-spacing="0" word-spacing="0" xml:space="preserve" style="line-height:3.41218019px"><tspan id="tspan4487-8-5" x="89.279" y="36.25" stroke-width=".136">System Bus</tspan></text><rect id="rect4485-6" width="49.276" height="44.713" x="24.808" y="101.208" fill="#000" fill-opacity="0" stroke="#000" stroke-dasharray="none" stroke-dashoffset="0" stroke-miterlimit="4" stroke-opacity="1" stroke-width=".854" rx="3.226" ry="3.226"/><text id="text4489-0" x="37.198" y="127.417" fill="#000" fill-opacity="1" stroke="none" stroke-width=".265" font-family="sans-serif" font-size="10.583" font-style="normal" font-weight="normal" letter-spacing="0" word-spacing="0" xml:space="preserve" style="line-height:6.61458349px"><tspan id="tspan4487-2" x="37.198" y="127.417" stroke-width=".265">MCH</tspan></text><path id="path5506" fill="none" stroke="#000" stroke-linecap="butt" stroke-linejoin="miter" stroke-opacity="1" stroke-width=".26" marker-end="url(#marker5510)" marker-start="url(#marker5766)" d="M 47.624999,76.072917 V 100.41458"/></g></svg>