<svg xmlns="http://www.w3.org/2000/svg" xmlns:svg="http://www.w3.org/2000/svg" xmlns:xlink="http://www.w3.org/1999/xlink" id="svg907" width="140.996" height="119.54" version="1.1" viewBox="0 0 37.305 31.628"><metadata id="metadata904"/><g id="layer1" transform="translate(-90.618714,-39.546327)"><g id="g96" fill="#f4f6f8" stroke="#4d4d4d" stroke-linecap="round" stroke-linejoin="round" transform="matrix(0.81098336,0,0,0.81098336,89.807731,35.49141)"><path id="path98" stroke="#4d4d4d" d="m 22.5,27.5 v 10 h -8 v 2 h 15 v -2 h -5 v -10 z"/><path id="path100" stroke="#4d4d4d" d="m 25.5,38.5 a 2,2 0 1 1 -4,0 2,2 0 1 1 4,0 z"/><path id="path102" stroke="#4d4d4d" d="m 4.5,11.5 -3,4 v 28 h 16 v -28 l -3,-4 z"/><path id="path104" stroke="#4d4d4d" d="m 3.5,17.5 v 15 h 12 v -15 z"/><path id="path106" stroke="#4d4d4d" d="m 3.5,30.5 h 12 m -12,-3 h 12 m -12,-2 h 12 m -12,-3 h 12 m -12,-2 h 12"/><path id="path108" stroke="#4d4d4d" d="m 13.5,40.5 v -5 m -2,5 v -5 m -2,5 v -5 m -2,5 v -5 m -2,5 v -5"/><use id="use110" width="744.094" height="1052.362" x="0" y="0" stroke="#4d4d4d" transform="translate(-7,-11)" xlink:href="#client"/><g id="client" stroke="#4d4d4d"><path id="path113" stroke="#4d4d4d" d="m 27.5,35.5 v 4 c 0,0.625 0.375,1 1,1 h 17 c 0.625,0 1,-0.375 1,-1 v -4 l -3,-5 h -13 z"/><path id="path115" stroke="#4d4d4d" d="m 29.5,36.5 v 4 h 15 v -4 z"/><path id="path117" stroke="#4d4d4d" d="m 42.5,38.5 h -5"/><path id="path119" stroke="#4d4d4d" d="m 32.5,30.5 -1,2 c -0.5,1 -0.5,2 1.5,2 h 8 c 2,0 2,-1 1.5,-2 l -1,-2 z"/><rect id="rect121" width="5" height="4" x="34.5" y="28.5" stroke="#4d4d4d"/><rect id="rect123" width="19" height="14" x="27.5" y="16.5" stroke="#4d4d4d" rx="1" ry="1"/><rect id="rect125" width="15" height="10" x="29.5" y="18.5" stroke="#4d4d4d"/></g></g></g></svg>