<svg xmlns="http://www.w3.org/2000/svg" xmlns:svg="http://www.w3.org/2000/svg" id="svg2102" width="66.502" height="108.016" version="1.1" viewBox="0 0 17.595 28.579"><defs id="defs2096"><filter id="filter4283" color-interpolation-filters="sRGB"><feGaussianBlur id="feGaussianBlur4285" result="fbSourceGraphic" stdDeviation="5"/><feGaussianBlur id="feGaussianBlur4287" in="SourceGraphic" result="result1" stdDeviation=".01"/><feComposite id="feComposite4289" in="fbSourceGraphic" in2="result1" k1="0" k2=".5" k3=".5" k4="0" operator="arithmetic" result="result2"/><feBlend id="feBlend4291" in2="fbSourceGraphic" mode="normal" result="result3"/></filter></defs><metadata id="metadata2099"/><g id="layer1" transform="translate(-118.61692,-84.604374)"><path id="rect4270" fill="#4d4d4d" fill-opacity="1" fill-rule="evenodd" stroke="none" stroke-dasharray="1 1" stroke-dashoffset="0" stroke-miterlimit="4" stroke-opacity=".995" stroke-width="1" d="m 2557.5215,977.97852 c -5.8311,0 -10.5254,4.69428 -10.5254,10.52539 v 208.59179 c 0,5.8311 4.6943,10.5254 10.5254,10.5254 h 131.8613 c 5.8311,0 10.5254,-4.6943 10.5254,-10.5254 V 988.50391 c 0,-5.83111 -4.6943,-10.52539 -10.5254,-10.52539 z" filter="url(#filter4283)" opacity="1" transform="matrix(0.1062655,0,0,0.10579147,-151.45849,-16.85465)"/><rect id="rect4172-3" width="15.977" height="23.994" x="119.318" y="86.746" fill="#fff" fill-opacity="1" fill-rule="evenodd" stroke="none" stroke-dasharray=".192 .192" stroke-dashoffset="0" stroke-miterlimit="4" stroke-opacity=".995" stroke-width=".192" opacity="1" ry="1.1"/><rect id="rect4174-2" width="13.518" height="20.18" x="120.548" y="88.449" fill="#ccc" fill-opacity="1" fill-rule="evenodd" stroke="none" stroke-dasharray=".192 .192" stroke-dashoffset="0" stroke-miterlimit="4" stroke-opacity=".995" stroke-width=".192" opacity="1"/><rect id="rect4176-6" width=".452" height=".375" x="124.229" y="87.391" fill="#b3b3b3" fill-opacity="1" fill-rule="evenodd" stroke="none" stroke-dasharray="none" stroke-dashoffset="0" stroke-miterlimit="4" stroke-opacity=".995" stroke-width=".192" opacity="1" ry=".166"/><rect id="rect4178-8" width="3.427" height=".328" x="125.573" y="87.424" fill="#b3b3b3" fill-opacity="1" fill-rule="evenodd" stroke="none" stroke-dasharray=".192 .192" stroke-dashoffset="0" stroke-miterlimit="4" stroke-opacity=".995" stroke-width=".192" opacity="1" ry=".068"/><path id="path4188-0" fill="#b3b3b3" fill-opacity="1" fill-rule="evenodd" stroke="none" stroke-dasharray="none" stroke-dashoffset="0" stroke-miterlimit="4" stroke-opacity=".995" stroke-width=".414" d="m 127.30676,109.05044 a 0.67369845,0.67369845 0 0 0 -0.67376,0.67374 0.67369845,0.67369845 0 0 0 0.67376,0.67374 0.67369845,0.67369845 0 0 0 0.67374,-0.67374 0.67369845,0.67369845 0 0 0 -0.67374,-0.67374 z m 0,0.19076 a 0.48302908,0.48302908 0 0 1 0.48297,0.48298 0.48302908,0.48302908 0 0 1 -0.48297,0.483 0.48302908,0.48302908 0 0 1 -0.48301,-0.483 0.48302908,0.48302908 0 0 1 0.48301,-0.48298 z" opacity="1"/><rect id="rect4646" width="13.426" height="20.097" x="120.64" y="88.532" fill="#333" fill-opacity="1" fill-rule="evenodd" stroke="none" stroke-dasharray=".192 .192" stroke-dashoffset="0" stroke-miterlimit="4" stroke-opacity=".995" stroke-width=".192" opacity="1"/></g></svg>