<svg xmlns="http://www.w3.org/2000/svg" xmlns:svg="http://www.w3.org/2000/svg" id="svg18" width="605.326" height="250.667" version="1.1" viewBox="0 0 160.159 66.322"><defs id="defs12"><marker id="marker12458" orient="auto" overflow="visible" refX="0" refY="0"><path id="path12456" fill="#000" fill-opacity="1" fill-rule="evenodd" stroke="#000" stroke-linejoin="round" stroke-opacity="1" stroke-width=".625" d="M 8.7185878,4.0337352 -2.2072895,0.01601326 8.7185884,-4.0017078 c -1.7454984,2.3720609 -1.7354408,5.6174519 -6e-7,8.035443 z" transform="matrix(-1.1,0,0,-1.1,-1.1,0)"/></marker><marker id="marker12400" orient="auto" overflow="visible" refX="0" refY="0"><path id="path12398" fill="#000" fill-opacity="1" fill-rule="evenodd" stroke="#000" stroke-linejoin="round" stroke-opacity="1" stroke-width=".625" d="M 8.7185878,4.0337352 -2.2072895,0.01601326 8.7185884,-4.0017078 c -1.7454984,2.3720609 -1.7354408,5.6174519 -6e-7,8.035443 z" transform="matrix(-1.1,0,0,-1.1,-1.1,0)"/></marker><marker id="Arrow2Lend" orient="auto" overflow="visible" refX="0" refY="0"><path id="path8919" fill="#000" fill-opacity="1" fill-rule="evenodd" stroke="#000" stroke-linejoin="round" stroke-opacity="1" stroke-width=".625" d="M 8.7185878,4.0337352 -2.2072895,0.01601326 8.7185884,-4.0017078 c -1.7454984,2.3720609 -1.7354408,5.6174519 -6e-7,8.035443 z" transform="matrix(-1.1,0,0,-1.1,-1.1,0)"/></marker><marker id="marker12067" orient="auto" overflow="visible" refX="0" refY="0"><path id="path12065" fill="#000" fill-opacity="1" fill-rule="evenodd" stroke="#000" stroke-linejoin="round" stroke-opacity="1" stroke-width=".625" d="M 8.7185878,4.0337352 -2.2072895,0.01601326 8.7185884,-4.0017078 c -1.7454984,2.3720609 -1.7354408,5.6174519 -6e-7,8.035443 z" transform="matrix(-1.1,0,0,-1.1,-1.1,0)"/></marker><marker id="marker12027" orient="auto" overflow="visible" refX="0" refY="0"><path id="path12025" fill="#000" fill-opacity="1" fill-rule="evenodd" stroke="#000" stroke-linejoin="round" stroke-opacity="1" stroke-width=".625" d="M 8.7185878,4.0337352 -2.2072895,0.01601326 8.7185884,-4.0017078 c -1.7454984,2.3720609 -1.7354408,5.6174519 -6e-7,8.035443 z" transform="matrix(-1.1,0,0,-1.1,-1.1,0)"/></marker><marker id="marker11993" orient="auto" overflow="visible" refX="0" refY="0"><path id="path11991" fill="#000" fill-opacity="1" fill-rule="evenodd" stroke="#000" stroke-linejoin="round" stroke-opacity="1" stroke-width=".625" d="M 8.7185878,4.0337352 -2.2072895,0.01601326 8.7185884,-4.0017078 c -1.7454984,2.3720609 -1.7354408,5.6174519 -6e-7,8.035443 z" transform="matrix(-1.1,0,0,-1.1,-1.1,0)"/></marker><marker id="marker11965" orient="auto" overflow="visible" refX="0" refY="0"><path id="path11963" fill="#000" fill-opacity="1" fill-rule="evenodd" stroke="#000" stroke-linejoin="round" stroke-opacity="1" stroke-width=".625" d="M 8.7185878,4.0337352 -2.2072895,0.01601326 8.7185884,-4.0017078 c -1.7454984,2.3720609 -1.7354408,5.6174519 -6e-7,8.035443 z" transform="matrix(-1.1,0,0,-1.1,-1.1,0)"/></marker><marker id="marker11943" orient="auto" overflow="visible" refX="0" refY="0"><path id="path11941" fill="#000" fill-opacity="1" fill-rule="evenodd" stroke="#000" stroke-linejoin="round" stroke-opacity="1" stroke-width=".625" d="M 8.7185878,4.0337352 -2.2072895,0.01601326 8.7185884,-4.0017078 c -1.7454984,2.3720609 -1.7354408,5.6174519 -6e-7,8.035443 z" transform="matrix(-1.1,0,0,-1.1,-1.1,0)"/></marker></defs><metadata id="metadata15"/><g id="layer1" transform="translate(-36.867271,-83.92222)"><rect id="rect935-8-8-0" width="34.274" height="39.112" x="37.164" y="95.917" fill="none" fill-opacity="1" stroke="#000" stroke-dasharray="none" stroke-miterlimit="4" stroke-opacity="1" stroke-width=".593" rx="4.301" ry="5.176"/><text id="text1080-13-10-0-2-2-6-8-1-0" x="42.075" y="97.305" fill="#000" fill-opacity="1" stroke="none" stroke-width=".105" font-family="sans-serif" font-size="4.21" font-style="normal" font-weight="normal" letter-spacing="0" word-spacing="0" xml:space="preserve" style="line-height:2.63103104px"><tspan id="tspan11901" x="42.075" y="102.409" stroke-width=".105" font-family="CMU Typewriter Text" font-stretch="normal" font-style="normal" font-variant="normal" font-weight="normal" style="-inkscape-font-specification:'CMU Typewriter Text'">digraph { </tspan><tspan id="tspan12804" x="42.075" y="107.735" stroke-width=".105" font-family="CMU Typewriter Text" font-stretch="normal" font-style="normal" font-variant="normal" font-weight="normal" style="-inkscape-font-specification:'CMU Typewriter Text'"> a -&gt; b; </tspan><tspan id="tspan12808" x="42.075" y="113.06" stroke-width=".105" font-family="CMU Typewriter Text" font-stretch="normal" font-style="normal" font-variant="normal" font-weight="normal" style="-inkscape-font-specification:'CMU Typewriter Text'"> b -&gt; c; </tspan><tspan id="tspan12812" x="42.075" y="118.386" stroke-width=".105" font-family="CMU Typewriter Text" font-stretch="normal" font-style="normal" font-variant="normal" font-weight="normal" style="-inkscape-font-specification:'CMU Typewriter Text'"> a -&gt; c; </tspan><tspan id="tspan12816" x="42.075" y="123.712" stroke-width=".105" font-family="CMU Typewriter Text" font-stretch="normal" font-style="normal" font-variant="normal" font-weight="normal" style="-inkscape-font-specification:'CMU Typewriter Text'"> d -&gt; c; </tspan><tspan id="tspan12820" x="42.075" y="129.038" stroke-width=".105" font-family="CMU Typewriter Text" font-stretch="normal" font-style="normal" font-variant="normal" font-weight="normal" style="-inkscape-font-specification:'CMU Typewriter Text'">}</tspan></text><path id="path12394" fill="none" stroke="#000" stroke-linecap="butt" stroke-linejoin="miter" stroke-opacity="1" stroke-width=".483" marker-end="url(#marker12400)" d="M 76.729177,111.79166 H 129.64584"/><g id="graph0" class="graph" transform="matrix(0.35277777,0,0,0.35277777,137.75973,148.83333)"><title id="title2">%3</title><polygon id="polygon4" fill="#fff" stroke="none" points="-4 4 -4 -184 168 -184 168 4"/><g id="node1" class="node"><title id="title6">a</title><ellipse id="ellipse8" cx="54" cy="-162" fill="none" stroke="#000" rx="27" ry="18"/><text id="text10" x="54" y="-158.3" font-family="Times, serif" font-size="14" text-anchor="middle">a</text></g><g id="node2" class="node"><title id="title13">b</title><ellipse id="ellipse15" cx="27" cy="-90" fill="none" stroke="#000" rx="27" ry="18"/><text id="text17" x="27" y="-86.3" font-family="Times, serif" font-size="14" text-anchor="middle">b</text></g><g id="edge1" class="edge"><title id="title20">a-&gt;b</title><path id="path22" fill="none" stroke="#000" d="m 47.6014,-144.411 c -3.115,8.076 -6.9351,17.98 -10.436,27.056"/><polygon id="polygon24" fill="#000" stroke="#000" points="33.873 -118.546 40.404 -116.027 33.54 -107.956"/></g><g id="node3" class="node"><title id="title27">c</title><ellipse id="ellipse29" cx="82" cy="-18" fill="none" stroke="#000" rx="27" ry="18"/><text id="text31" x="82" y="-14.3" font-family="Times, serif" font-size="14" text-anchor="middle">c</text></g><g id="edge3" class="edge"><title id="title34">a-&gt;c</title><path id="path36" fill="none" stroke="#000" d="m 57.3775,-143.871 c 4.7931,24.307 13.616,69.0523 19.2959,97.8578"/><polygon id="polygon38" fill="#000" stroke="#000" points="73.242 -45.323 80.11 -46.678 78.611 -36.189"/></g><g id="edge2" class="edge"><title id="title41">b-&gt;c</title><path id="path43" fill="none" stroke="#000" d="m 38.9342,-73.811 c 7.2794,9.2646 16.7284,21.2907 24.9202,31.7166"/><polygon id="polygon45" fill="#000" stroke="#000" points="61.159 -39.86 66.663 -44.185 70.089 -34.159"/></g><g id="node4" class="node"><title id="title48">d</title><ellipse id="ellipse50" cx="137" cy="-90" fill="none" stroke="#000" rx="27" ry="18"/><text id="text52" x="137" y="-86.3" font-family="Times, serif" font-size="14" text-anchor="middle">d</text></g><g id="edge4" class="edge"><title id="title55">d-&gt;c</title><path id="path57" fill="none" stroke="#000" d="m 125.066,-73.811 c -7.28,9.2646 -16.729,21.2907 -24.92,31.7166"/><polygon id="polygon59" fill="#000" stroke="#000" points="97.337 -44.185 102.841 -39.86 93.911 -34.159"/></g></g></g></svg>